<svg width="801" height="785" viewBox="0 0 801 785" fill="none" xmlns="http://www.w3.org/2000/svg">
<path d="M74.6676 613.501C236.57 820.606 615.75 823.932 720.726 708.895C762.632 662.988 773.679 584.136 789.94 468.339C797.774 412.596 798.901 367.647 799.549 336.816C801.832 231.925 802.988 179.48 786.107 143.802C737.748 41.6726 569.73 1.90861 461.147 0.0768215C453.566 -0.0640856 445.929 -0.00772275 438.208 0.217728C311.053 3.99404 167.582 56.9469 79.092 170.039C69.9331 181.706 61.3941 194.021 53.5034 206.985C-27.2645 339.832 -13.6811 500.522 74.6676 613.501Z" fill="#F4F7FA"/>
<path d="M390.299 715.772C425.103 709.431 433.698 634.722 434.797 624.097C437.531 597.494 440.913 564.522 421.693 536.622C393.878 496.295 346.533 506.807 335.233 473.327C328.3 452.755 345.378 446.442 346.195 407.101C346.421 395.8 347.266 355.05 318.746 322.106C298.428 298.602 272.585 289.951 258.917 286.625C254.465 275.381 249.279 258.303 249.392 237.477C249.589 204.082 263.229 191.175 256.156 173.477C248.039 153.186 219.097 142.59 197.059 142.787C138.386 143.323 106.231 220.765 104.032 226.261C98.3398 240.492 80.3037 285.583 100.932 318.386C117.221 344.313 144.924 342.312 149.151 363.617C153.378 384.894 127.028 393.151 120.8 425.616C115.474 453.318 127.169 486.375 147.883 504.975C182.461 536.059 224.79 511.231 243.305 536.989C264.864 566.974 221.38 619.927 240.599 637.794C258.861 654.759 306.572 614.995 329.85 634.806C346.646 649.123 331.062 677.868 353.748 700.892C355.129 702.245 372.15 719.069 390.299 715.772Z" fill="#D8DEE8"/>
<path opacity="0.5" d="M207.543 160.373C185.251 165.502 174.937 232.658 186.717 290.148C194.833 329.743 206.387 330.475 236.119 397.491C276.39 488.319 261.426 501.142 290.706 532.874C330.893 576.415 372.094 566.41 394.188 608.316C409.153 636.666 404.813 668.821 398.331 692.437C406.644 679.699 419.523 656.14 423.131 624.21C425.47 603.412 429.697 565.818 408.082 542.935C382.127 515.486 343.913 535.636 326.102 510.104C316.013 495.618 325.087 484.543 327.426 435.141C329.794 385.288 330.949 360.348 317.478 339.099C293.412 301.167 250.125 316.61 235.302 283.694C219.943 249.567 258.946 216.228 238.655 181.621C232.061 170.49 218.534 157.836 207.543 160.373Z" fill="#F4F7FA"/>
<path d="M253.591 706.753C215.49 699.793 206.049 617.954 204.837 606.315C201.85 577.175 198.13 541.047 219.21 510.498C249.674 466.338 301.528 477.836 313.899 441.172C321.508 418.627 302.796 411.722 301.894 368.605C301.64 356.233 300.739 311.594 331.935 275.493C354.199 249.764 382.493 240.295 397.457 236.603C402.333 224.26 407.997 205.575 407.884 182.777C407.659 146.197 392.723 132.05 400.473 112.661C409.378 90.4262 441.082 78.8155 465.205 79.0409C529.487 79.6328 564.714 164.459 567.137 170.49C573.366 186.074 593.121 235.476 570.519 271.407C552.652 299.814 522.329 297.616 517.679 320.978C513.057 344.284 541.915 353.331 548.735 388.895C554.569 419.247 541.746 455.46 519.06 475.835C481.184 509.878 434.826 482.683 414.535 510.893C390.919 543.752 438.546 601.75 417.494 621.336C397.485 639.907 345.209 596.339 319.733 618.038C301.33 633.735 318.408 665.214 293.552 690.408C292.115 691.958 273.487 710.389 253.591 706.753Z" fill="url(#paint0_linear_3_637)"/>
<path opacity="0.5" d="M453.792 98.3452C478.225 103.982 489.526 177.535 476.619 240.52C467.742 283.892 455.06 284.709 422.51 358.121C378.407 457.63 394.78 471.664 362.709 506.412C318.69 554.123 273.572 543.16 249.336 589.04C232.934 620.096 237.697 655.322 244.799 681.193C235.696 667.243 221.577 641.429 217.632 606.456C215.067 583.685 210.417 542.512 234.118 517.431C262.553 487.361 304.43 509.427 323.932 481.471C335.007 465.605 325.059 453.487 322.495 399.351C319.902 344.735 318.634 317.427 333.401 294.121C359.779 252.554 407.18 269.491 423.412 233.447C440.237 196.05 397.514 159.527 419.749 121.651C426.935 109.421 441.758 95.5553 453.792 98.3452Z" fill="#F4F7FA"/>
<path d="M406.588 720.111C427.414 716.532 438.912 665.242 434.459 625.45C432.74 610.063 431.021 594.76 419.805 580.811C400.895 557.279 379.055 567.594 362.428 548.599C337.882 520.559 368.43 478.54 344.786 455.742C327.398 438.974 305.36 456.39 284.619 438.213C260.552 417.133 275.206 380.554 254.521 371.254C242.488 365.843 234.371 376.777 201.822 374.467C189.084 373.565 182.715 373.114 176.881 369.619C156.45 357.304 166.313 329.433 149.968 312.355C131.96 293.558 93.0133 299.109 69.82 309.508C28.2806 328.108 9.59637 374.692 8.94821 411.722C8.80731 419.67 8.75095 471.326 45.8095 498.718C72.7509 518.614 108.964 518.023 114.854 517.91C137.737 517.543 142.331 510.893 150.447 515.684C173.922 529.577 141.175 588.363 171.189 625.845C183.447 641.147 204.33 650.616 222.845 651.462C252.774 652.842 265.681 631.199 281.575 638.611C302.148 648.221 289.72 688.689 312.265 700.61C328.215 709.036 340.502 691.986 367.416 699.088C391.313 705.429 394.273 722.225 406.588 720.111Z" fill="url(#paint1_linear_3_637)"/>
<path opacity="0.5" d="M405.432 682.574C395.935 684.941 390.891 659.127 358.454 625.281C323.058 588.307 304.036 592.872 271.092 559.618C233.47 521.63 250.829 508.159 219.322 478.738C176.599 438.889 140.302 459.518 88.9271 412.85C73.5119 398.844 52.9959 379.68 56.3495 356.149C59.2521 335.745 79.6836 314.75 102.877 314.694C103.835 314.694 123.337 314.976 135.793 329.94C151.067 348.314 137.935 367.449 152.082 381.399C159.493 388.698 171.048 389.544 194.185 391.235C227.439 393.658 232.99 386.641 242.093 392.7C262.665 406.424 242.093 447.513 262.975 464.534C280.899 479.161 306.713 457.574 322.41 471.58C341.376 488.489 311.842 527.125 331.372 555.391C348.196 579.712 379.618 564.916 402.276 590.336C429.02 620.406 419.129 679.164 405.432 682.574Z" fill="#F4F7FA"/>
<path d="M284.985 698.75C269.175 699.849 267.034 670.794 239.416 662.114C208.867 652.504 189.478 681.109 168.23 670.174C144.332 657.887 157.774 616.122 130.946 600.425C112.6 589.716 99.8334 605.413 76.7528 595.578C52.7141 585.32 29.239 552.348 38.4825 519.995C46.176 492.998 73.9628 475.892 96.3107 475.722C114.6 475.582 119.786 486.854 135.765 483.557C155.689 479.414 155.21 460.335 176.092 451.74C196.862 443.201 225.269 450.585 240.881 467.55C253.873 481.669 255.197 499.282 256.353 514.669C259.453 555.983 240.599 571.877 250.688 587.744C263.257 607.555 297.667 590.759 313.364 610.401C332.978 635.004 307.728 697.172 284.985 698.75Z" fill="url(#paint2_linear_3_637)"/>
<path opacity="0.5" d="M292.679 668.37C286.901 669.526 285.182 650.701 267.005 634.975C246.151 616.967 230.454 626.183 207.148 611.979C178.234 594.338 189.225 572.159 163.495 554.264C127.423 529.182 82.6145 556.631 70.4964 536.171C63.4229 524.222 71.37 502.41 84.1362 495.308C97.7478 487.727 107.414 502.128 130.776 498.718C152.673 495.534 153.913 481.471 180.939 474.426C194.1 470.988 211.432 466.479 222.479 474.933C244.15 491.532 232.37 550.797 228.791 568.89C225.494 585.545 222.422 591.999 226.762 598.762C238.119 616.516 275.742 598.199 293.158 617.362C307.699 633.397 300.147 666.877 292.679 668.37Z" fill="#F4F7FA"/>
<path d="M3.36853 702.188L777.793 695.594V715.124C777.793 720.422 774.412 724.931 769.846 725.748L550.849 764.216C548.256 764.667 545.607 764.779 542.986 764.582L11.7665 720.732C7.0321 720.337 3.34033 715.828 3.34033 710.361V702.188H3.36853Z" fill="#26264F"/>
<path d="M284.422 670.879L769.79 706.613C778.47 707.261 785.543 700.469 785.543 691.423V329.996C785.543 320.978 778.47 313.651 769.79 313.651H284.393C277.235 313.651 271.458 320.274 271.458 328.418V655.153C271.458 663.326 277.264 670.371 284.422 670.879Z" fill="#26264F"/>
<path d="M276.672 670.879L762.068 706.613C770.748 707.261 777.822 700.469 777.822 691.423V329.996C777.822 320.978 770.748 313.651 762.068 313.651H276.672C269.514 313.651 263.737 320.274 263.737 328.418V655.153C263.737 663.326 269.514 670.371 276.672 670.879Z" fill="url(#paint3_linear_3_637)"/>
<path d="M291.805 647.855L743.891 678.882C750.965 679.361 756.714 673.781 756.714 666.426V349.977C756.714 342.622 750.965 336.619 743.891 336.591L291.805 334.646C285.915 334.618 281.124 340.029 281.124 346.736V634.976C281.124 641.683 285.887 647.432 291.805 647.855Z" fill="url(#paint4_linear_3_637)"/>
<path d="M502.207 323.543C502.207 326.897 504.716 329.63 507.787 329.63C510.887 329.63 513.396 326.925 513.396 323.543C513.396 320.19 510.887 317.456 507.787 317.456C504.716 317.456 502.207 320.19 502.207 323.543Z" fill="white"/>
<path opacity="0.48" d="M762.068 706.613L279.152 671.076L276.7 670.907C273.403 670.653 270.444 669.047 268.161 666.567C302.909 664.679 324.496 652.335 338.417 639.597C366.373 614.009 361.526 588.758 391.68 571.934C429.302 550.939 458.865 577.542 487.412 551.305C504.716 535.411 496.233 523.546 517.51 499.761C541.098 473.44 556.457 482.289 580.129 458.588C610.086 428.631 595.093 405.325 620.908 383.795C652.217 357.699 685.978 381.85 715.794 356.825C728.645 346.032 735.719 330.335 739.382 313.651H762.068C770.748 313.651 777.822 320.978 777.822 329.996V691.451C777.793 700.469 770.748 707.261 762.068 706.613Z" fill="white"/>
<path d="M257.339 668.906L777.793 706.5L550.849 746.348C548.256 746.799 545.607 746.912 542.986 746.715L3.34033 702.16L249.026 669.131C251.788 668.793 254.578 668.709 257.339 668.906Z" fill="url(#paint5_linear_3_637)"/>
<path d="M701.844 706.838L268.556 675.05L134.44 692.945L564.009 726.903L701.844 706.838Z" fill="#26264F"/>
<path d="M58.0685 69.7694V306.127C58.0685 317.033 65.4803 326.051 74.8083 326.276L152.504 328.165L392.131 334.026C401.882 334.252 410.956 326.333 412.027 315.878C412.111 315.089 413.182 314.271 413.182 313.454V61.6532C413.182 57.3978 410.984 53.4806 409.012 50.2397C408.955 50.1552 408.392 50.0706 408.335 49.9861C404.897 44.4907 398.866 40.9962 392.356 41.1653L356.002 42.1235L74.8647 49.5915C65.5366 49.8452 58.0685 58.8632 58.0685 69.7694Z" fill="white"/>
<path d="M392.103 327.347C399.232 327.517 405.038 321.232 405.038 313.341V61.8223C405.038 53.9315 399.232 47.6752 392.103 47.8443L74.6954 55.9042C68.3546 56.0733 63.1974 62.2168 63.1974 69.6567V306.24C63.1974 313.651 68.3546 319.795 74.6954 319.964L392.103 327.347Z" fill="url(#paint6_linear_3_637)"/>
<path d="M74.6674 49.5916L392.074 41.1654C402.558 40.8836 411.069 50.0707 411.069 61.6814V76.7585L57.7867 83.9166V69.7695C57.8148 58.8633 65.3675 49.8452 74.6674 49.5916Z" fill="#D8DEE8"/>
<path d="M377.279 59.8495C377.279 63.3158 380.041 66.0494 383.451 65.9649C386.861 65.8803 389.651 63.0058 389.651 59.5395C389.651 56.0732 386.889 53.3396 383.451 53.4242C380.041 53.5369 377.279 56.4114 377.279 59.8495Z" fill="white"/>
<path d="M355.692 60.3569C355.692 63.795 358.426 66.5286 361.808 66.4723C365.189 66.3877 367.951 63.5414 367.951 60.0751C367.951 56.6088 365.189 53.9034 361.808 53.9597C358.454 54.0443 355.692 56.9188 355.692 60.3569Z" fill="white"/>
<path d="M334.274 60.8641C334.274 64.3022 337.008 67.0076 340.362 66.9513C343.715 66.8667 346.449 64.0204 346.449 60.5823C346.449 57.1441 343.715 54.4105 340.362 54.4951C337.008 54.5796 334.274 57.4259 334.274 60.8641Z" fill="white"/>
<path d="M77.4855 306.634L388.946 313.116V115.029L77.4855 119.284V306.634Z" fill="#D8DEE8"/>
<g opacity="0.5">
<path opacity="0.5" d="M222.422 97.3871L388.946 94.5126V105.222L222.422 107.786V97.3871Z" fill="white"/>
<path opacity="0.5" d="M95.4651 99.5852V109.731L77.4855 110.012V99.8952L95.4651 99.5852Z" fill="white"/>
</g>
<g opacity="0.5">
<path opacity="0.5" d="M150.475 328.165L390.13 334.026C399.881 334.252 409.012 326.333 410.111 315.878C410.111 315.652 411.238 315.427 411.238 315.201V61.5405C411.238 57.3415 409.04 53.4806 407.123 50.2398C407.067 50.1552 406.475 50.0707 406.419 49.9861C403.009 44.3498 396.894 40.7426 390.299 40.9117L354.142 41.8699C354.114 41.9544 354.03 42.039 354.001 42.1235C353.325 44.3217 352.564 46.548 351.747 48.8307C348.534 57.8206 344.251 67.2331 338.502 76.533C338.164 77.0966 337.797 77.6603 337.431 78.2239C333.204 84.8465 328.695 90.5673 324.016 95.5836C320.268 99.5854 316.379 103.164 312.406 106.349C307.756 110.097 302.937 113.338 298.061 116.241C262.863 137.123 223.352 139.857 197.144 181.706C174.683 217.581 190.775 236.406 169.047 291.303C166.68 297.278 164.143 302.971 161.466 308.438C159.183 313.088 156.788 317.569 154.28 321.88C153.012 323.994 151.744 326.107 150.475 328.165Z" fill="white"/>
</g>
<path d="M277.292 304.718C331.372 296.376 343.405 290.232 348.985 278.763C357.101 262.079 351.211 234.884 337.318 218.173C325.2 203.546 310.123 200.728 310.546 190.611C310.912 182.298 321.226 181.17 328.835 165.473C331.062 160.88 335.373 151.975 333.485 141.294C330.723 125.681 316.745 117.65 315.59 117.03C300.992 108.97 292.707 118.608 281.772 111.365C268.133 102.347 274.304 82.8174 261.538 77.4347C252.266 73.5457 240.458 80.2529 237.387 82.0001C227.129 87.8337 228.228 93.4981 219.576 97.1335C209.459 101.389 204.64 94.9917 192.945 97.7817C183.307 100.093 176.346 107.194 170.681 114.324C157.971 130.303 164.284 139.603 154.9 159.189C141.739 186.666 121.927 183.622 118.405 205.519C116.573 216.961 121.279 222.174 117.672 239.703C115.22 251.539 112.177 253.653 111.613 260.586C110.063 280.594 132.665 298.405 136.892 301.533C163.974 321.683 201.681 316.357 277.292 304.718Z" fill="url(#paint7_linear_3_637)"/>
<path opacity="0.7" d="M191.282 250.581C226.678 248.101 250.773 281.891 260.383 273.606C269.485 265.743 243.812 238.801 252.576 207.52C261.2 176.746 295.159 170.123 292.453 152.735C289.41 133.065 244.009 128.556 245.08 114.127C245.7 105.616 261.707 103.531 264.92 89.9473C265.794 86.2555 265.512 82.6202 264.582 79.2102C273.403 86.2274 269.401 103.164 281.829 111.393C292.763 118.636 301.048 108.998 315.646 117.058C316.774 117.678 330.78 125.71 333.542 141.322C335.43 152.003 331.118 160.908 328.892 165.502C321.283 181.199 310.968 182.326 310.602 190.639C310.151 200.757 325.256 203.603 337.374 218.201C351.24 234.912 357.158 262.079 349.041 278.791C343.461 290.261 331.428 296.404 277.348 304.746C201.765 316.385 164.059 321.711 137.005 301.618C126.577 293.868 114.29 280.735 111.669 269.125C116.911 274.113 122.068 276.565 126.887 277.495C149.292 281.919 159.719 252.779 191.282 250.581Z" fill="url(#paint8_linear_3_637)"/>
<path d="M337.6 377.679C345.8 357.135 340.812 324.67 339.741 317.822C335.627 291.162 325.961 274.62 322.438 268.73C298.371 228.572 261.989 228.853 234.681 229.079C221.239 229.192 207.317 228.882 190.352 235.138C190.352 235.138 176.966 240.07 165.665 248.327C132.016 272.873 105.554 353.246 132.608 384.105C149.883 403.832 167.666 379.286 245.277 392.446C276.671 397.773 309.897 406.453 329.709 389.29C333.006 386.472 335.599 382.667 337.6 377.679Z" fill="url(#paint9_linear_3_637)"/>
<path d="M248.997 180.945C248.997 180.945 243.248 224.006 272.473 232.601C275.854 233.588 276.897 238.069 274.333 240.549L238.289 275.578C236.119 277.692 232.709 277.523 230.708 275.184L198.412 237.59C196.298 235.138 197.228 231.249 200.187 230.093C210.53 226.12 229.101 214.509 225.184 183.115L248.997 180.945Z" fill="url(#paint10_linear_3_637)"/>
<path d="M266.921 156.906C266.921 157.385 259.03 199.517 238.852 199.573C219.858 199.629 212.671 168.883 210.332 154.539C210.079 152.087 209.825 149.664 209.6 147.212C210.896 147.635 214.081 148.508 217.885 147.381C218.759 147.127 224.254 145.493 226.311 140.73C228.594 135.404 224.395 131.261 226.79 126.583C228.171 123.878 230.961 122.581 233.103 121.905C231.694 124.103 228.932 128.979 230.482 133.375C231.525 136.334 234.456 139.124 240.994 140.787C259.763 145.549 267.118 147.353 266.921 156.906Z" fill="url(#paint11_linear_3_637)"/>
<path d="M261.989 161.979C261.989 161.979 272.444 152.707 273.346 158.315C275.262 170.039 266.301 176.577 261.453 173.111C256.606 169.644 261.989 161.979 261.989 161.979Z" fill="url(#paint12_linear_3_637)"/>
<path d="M216.279 162.345C216.279 162.345 205.993 153.327 205.119 158.907C203.259 170.546 212.024 176.887 216.814 173.392C221.577 169.87 216.279 162.345 216.279 162.345Z" fill="url(#paint13_linear_3_637)"/>
<path d="M269.204 289.049C269.204 295.192 273.994 300.237 279.941 300.321C285.887 300.406 290.706 295.446 290.706 289.274C290.706 283.102 285.887 278.058 279.941 278.002C273.994 277.945 269.204 282.877 269.204 289.049Z" fill="white"/>
<path d="M219.322 288.485C219.322 294.6 224.057 299.589 229.89 299.673C235.752 299.758 240.487 294.854 240.487 288.71C240.487 282.595 235.724 277.579 229.89 277.522C224.057 277.466 219.322 282.37 219.322 288.485Z" fill="white"/>
<path d="M170.231 287.921C170.231 293.98 174.881 298.94 180.63 299.025C186.407 299.109 191.085 294.234 191.085 288.147C191.085 282.06 186.407 277.1 180.63 277.043C174.881 276.987 170.231 281.862 170.231 287.921Z" fill="white"/>
<path d="M107.245 416.457V610.88C107.245 619.842 113.332 627.592 121.054 628.127L185.167 632.721H185.223L381.45 646.755C382.747 646.84 383.987 646.755 385.198 646.53C385.424 646.502 385.649 646.445 385.875 646.389C386.297 646.276 386.748 646.135 387.171 645.994C387.594 645.825 388.016 645.656 388.411 645.459C389.031 645.177 389.623 644.839 390.158 644.473C390.525 644.219 390.891 643.965 391.229 643.684C391.596 643.402 391.934 643.092 392.244 642.782C394.865 640.274 396.612 636.723 397.035 632.665C397.091 632.016 397.373 631.368 397.373 630.692V425.531C397.373 425.334 397.373 425.165 397.373 424.968C397.373 424.742 397.345 424.545 397.345 424.32C397.091 421.332 396.02 418.542 394.611 416.147C394.583 416.062 394.414 416.006 394.357 415.921C392.103 412.173 388.552 409.44 384.466 408.453C383.987 408.341 383.507 408.228 383 408.172C382.493 408.087 381.986 408.115 381.478 408.087L351.944 407.298H351.916L288.17 405.41L120.998 400.619C120.829 400.619 120.66 400.591 120.49 400.619C120.293 400.619 120.068 400.619 119.87 400.619C119.673 400.619 119.476 400.647 119.279 400.675C112.459 401.521 107.245 408.172 107.245 416.457Z" fill="white"/>
<path d="M381.478 641.288C387.284 641.683 391.99 636.807 391.99 630.382V425.475C391.99 419.05 387.256 413.695 381.478 413.526L120.885 405.861C115.643 405.72 111.36 410.539 111.36 416.654V611.247C111.36 617.334 115.615 622.604 120.885 622.97L381.478 641.288Z" fill="url(#paint14_linear_3_637)"/>
<path d="M120.913 400.647L381.507 408.059C390.046 408.313 396.978 416.175 396.978 425.616V437.903L106.963 428.124V416.485C106.935 407.524 113.163 400.422 120.913 400.647Z" fill="#D8DEE8"/>
<path d="M369.417 422.628C369.417 425.447 371.671 427.814 374.433 427.898C377.223 427.983 379.477 425.757 379.477 422.938C379.477 420.12 377.223 417.753 374.433 417.669C371.671 417.612 369.417 419.81 369.417 422.628Z" fill="white"/>
<path d="M351.832 422.093C351.832 424.911 354.058 427.251 356.82 427.335C359.581 427.42 361.836 425.221 361.836 422.403C361.836 419.585 359.581 417.246 356.82 417.162C354.086 417.077 351.832 419.275 351.832 422.093Z" fill="white"/>
<path d="M334.359 421.558C334.359 424.348 336.585 426.715 339.319 426.799C342.053 426.884 344.279 424.686 344.279 421.868C344.279 419.049 342.053 416.71 339.319 416.626C336.585 416.541 334.359 418.739 334.359 421.558Z" fill="white"/>
<path d="M123.224 612.092L378.914 629.565V468.113L123.224 458.081V612.092Z" fill="#D8DEE8"/>
<g opacity="0.5">
<path opacity="0.5" d="M242.741 446.47L378.914 451.402V460.11L242.741 454.953V446.47Z" fill="white"/>
<path opacity="0.5" d="M138.104 442.666V451.007L123.224 450.444V442.13L138.104 442.666Z" fill="white"/>
</g>
<g opacity="0.5">
<path opacity="0.5" d="M185.167 632.721L381.478 646.727C382.775 646.812 384.015 646.727 385.226 646.502C385.452 646.474 385.677 646.417 385.903 646.361C386.326 646.248 386.776 646.107 387.199 645.966C387.622 645.797 388.045 645.628 388.439 645.431C389.059 645.149 389.651 644.811 390.186 644.445C390.553 644.191 390.919 643.937 391.257 643.656C391.624 643.374 391.962 643.064 392.272 642.754C394.893 640.246 396.668 636.723 397.091 632.665C397.091 632.467 397.401 632.27 397.401 632.101V425.503C397.401 425.306 397.401 425.137 397.401 424.94C397.401 424.714 397.373 424.517 397.373 424.292C397.147 421.304 396.048 418.543 394.667 416.119C394.639 416.034 394.442 415.978 394.385 415.893C391.624 411.159 386.805 407.946 381.422 407.777L352.142 406.96C352.113 407.016 352.17 407.101 352.17 407.157C351.183 408.933 350.902 410.708 350.253 412.512C347.633 419.698 344.11 427.222 339.404 434.521C339.122 434.972 338.784 435.423 338.502 435.846C335.035 441.059 331.372 445.54 327.539 449.429C324.467 452.557 321.283 455.291 318.042 457.715C314.238 460.589 310.32 463.013 306.319 465.155C300.401 468.339 294.313 470.904 288.226 473.243C264.638 482.289 240.656 488.038 223.55 514.387C207.205 539.525 215.659 555.025 205.486 588.702C204.415 592.224 203.175 595.944 201.653 599.918C201.258 600.961 200.836 602.003 200.413 603.074C198.468 607.865 196.383 612.459 194.157 616.827C192.268 620.547 190.296 624.126 188.239 627.564C187.252 629.396 186.209 631.087 185.167 632.721Z" fill="white"/>
</g>
<path d="M346.223 675.19C354.114 654.646 342.983 619.363 335.994 603.3C315.703 556.688 278.729 553.249 248.744 550.459C219.548 547.754 191.62 545.133 171.302 578.19C158.113 599.664 146.023 639.625 154.083 661.861C162.565 685.307 186.266 669.244 243.333 672.936C307.249 677.079 336.388 700.779 346.223 675.19Z" fill="url(#paint15_linear_3_637)"/>
<path d="M221.182 553.756C221.182 559.393 234.343 566.861 250.688 567.763C267.09 568.636 280.448 562.549 280.448 556.856C280.448 551.164 267.09 553.024 250.688 552.178C234.343 551.305 221.182 548.12 221.182 553.756Z" fill="url(#paint16_linear_3_637)"/>
<path d="M261.567 516.275C266.076 516.473 255.648 549.022 272.106 554.405C273.713 554.94 273.966 557.167 272.501 557.899C268.077 560.154 259.819 562.859 246.292 562.155C237.556 561.676 231.159 557.899 227.833 555.419C226.706 554.574 226.819 552.798 228.031 552.207C233.047 549.755 240.036 541.498 237.951 516.022L261.567 516.275Z" fill="url(#paint17_linear_3_637)"/>
<path d="M275.347 477.216C275.291 477.639 273.91 507.793 267.259 522.588C265.343 526.815 255.93 525.857 249.843 525.04C244.573 524.335 236.316 525.941 233.977 522.052C224.649 506.384 226.227 468.705 226.227 468.705C226.227 468.705 230.99 456.333 250.66 457.404C270.415 458.475 275.347 477.216 275.347 477.216Z" fill="url(#paint18_linear_3_637)"/>
<path d="M270.697 493.251C270.697 493.251 274.84 488.404 278.757 487.896C282.674 487.389 285.239 498.042 279.885 504.664C274.53 511.287 268.386 505.313 268.386 505.313L270.697 493.251Z" fill="url(#paint19_linear_3_637)"/>
<path d="M230.511 491.532C230.511 491.532 226.424 486.375 222.563 485.557C218.703 484.74 216.223 495.055 221.464 502.072C226.734 509.117 232.793 503.734 232.793 503.734L230.511 491.532Z" fill="url(#paint20_linear_3_637)"/>
<path d="M273.938 492.997C273.403 493.984 272.811 494.885 272.416 494.744C270.754 494.209 277.207 477.497 271.261 471.326C268.189 468.141 264.723 470.79 252.154 469.719C239.557 468.62 236.344 465.379 232.54 467.634C229.073 469.691 226.002 475.807 228.566 494.434C227.862 494.237 227.129 494.04 226.424 493.814C227.383 487.784 226.34 483.923 225.128 481.471C224.254 479.667 222.676 477.356 222.789 474.087C222.873 472.058 223.522 472.002 223.606 470.339C223.916 465.464 218.618 463.97 218.364 459.151C218.167 455.431 221.211 454.699 220.647 450.81C220.168 447.512 217.801 446.808 218.167 444.441C218.562 441.876 221.774 440.101 224.001 439.509C226.283 438.917 227.129 439.678 228.453 438.776C230.623 437.283 229.581 434.464 231.159 433.478C233.949 431.731 239.529 439.283 243.136 437.564C245.306 436.522 244.489 433.196 246.405 432.464C250.153 431.026 256.776 442.186 259.425 440.833C260.693 440.185 259.481 437.48 261.257 435.564C263.37 433.337 268.415 433.506 270.725 436.014C272.867 438.353 271.064 441.031 273.318 443.99C275.375 446.667 277.743 445.681 280.053 447.822C283.999 451.486 282.618 459.433 282.139 462.279C280.448 472.03 275.206 473.806 276.39 480.569C276.7 482.288 277.376 484.233 276.897 486.995C276.446 489.7 275.065 491.701 273.938 492.997Z" fill="url(#paint21_linear_3_637)"/>
<g opacity="0.3">
<path opacity="0.3" d="M225.973 469.945C226.424 465.182 222.873 462.815 223.493 459.405C223.973 456.672 226.932 454.332 229.722 453.91C235.668 453.008 239.529 462.336 245.475 461.547C250.069 460.955 249.561 455.122 254.775 452.98C263.032 449.57 271.712 461.181 277.235 458.278C278.898 457.404 280.589 455.037 280.702 448.471C283.886 452.36 282.618 459.602 282.167 462.28C280.476 472.03 275.235 473.806 276.418 480.569C276.728 482.288 277.405 484.233 276.925 486.995C276.446 489.728 275.065 491.729 273.938 493.025C273.403 494.012 272.811 494.914 272.416 494.773C270.754 494.237 277.207 477.526 271.261 471.354C268.189 468.169 264.723 470.819 252.154 469.748C239.557 468.649 236.344 465.408 232.54 467.662C229.073 469.719 226.002 475.835 228.566 494.463C227.862 494.265 227.129 494.068 226.424 493.843C227.383 487.812 226.34 483.951 225.128 481.499C224.762 480.767 224.283 479.921 223.86 478.991C223.944 477.413 224.198 475.666 224.762 473.834C225.382 471.664 225.833 471.467 225.973 469.945Z" fill="url(#paint22_linear_3_637)"/>
</g>
<path d="M282.336 601.299C282.336 606.343 286.281 610.655 291.129 610.937C296.004 611.219 299.949 607.386 299.949 602.342C299.949 597.297 296.004 592.985 291.129 592.704C286.281 592.422 282.336 596.254 282.336 601.299Z" fill="white"/>
<path d="M241.417 598.875C241.417 603.864 245.306 608.175 250.097 608.457C254.916 608.739 258.805 604.906 258.805 599.89C258.805 594.874 254.916 590.59 250.097 590.308C245.306 590.055 241.417 593.887 241.417 598.875Z" fill="white"/>
<path d="M201.005 596.508C201.005 601.468 204.837 605.723 209.572 606.033C214.306 606.315 218.167 602.51 218.167 597.522C218.167 592.534 214.306 588.279 209.572 587.997C204.837 587.715 201.005 591.548 201.005 596.508Z" fill="white"/>
<path d="M288.254 405.41V497.76C288.254 510.865 297.667 521.968 309.334 522.588L378.914 526.195L391.99 526.872L397.457 527.154V425.56C397.457 425.362 397.457 425.193 397.457 424.996C397.457 424.771 397.429 424.573 397.429 424.348C397.204 421.361 396.105 418.599 394.724 416.175C394.696 416.091 394.498 416.034 394.442 415.95C391.68 411.215 386.861 408.003 381.478 407.834L352.085 407.016C352.057 407.073 352.029 407.157 352.001 407.214L288.254 405.41Z" fill="#D8DEE8"/>
<path d="M298.935 203.687C298.935 192.218 306.206 182.608 315.788 180.353C316.126 180.269 316.52 180.212 316.858 180.128C317.901 179.931 319 179.846 320.071 179.846L521.427 178.662L720.106 177.507C720.529 177.507 720.951 177.507 721.346 177.535C726.644 177.789 731.491 179.846 735.38 183.143C735.465 183.2 735.521 183.256 735.606 183.312C736.169 183.791 736.705 184.299 737.212 184.834L737.24 184.862C737.55 185.172 737.832 185.51 738.114 185.849C741.975 190.358 744.342 196.332 744.342 202.898V221.244V508.977C744.342 511.175 744.088 513.317 743.581 515.317C743.271 516.529 742.905 517.685 742.426 518.812C739.354 526.28 732.9 531.691 725.038 532.987C723.46 533.241 721.797 533.353 720.106 533.269L416.057 517.516L320.015 512.556C308.376 511.964 298.935 500.832 298.935 487.756V220.709V203.687Z" fill="#D8DEE8"/>
<path d="M298.09 203.547V487.897C298.09 501.001 307.53 512.133 319.169 512.725L416.621 517.769L720.05 533.495C732.478 534.143 743.468 524.815 744.849 512.133C744.962 511.175 745.723 202.786 745.723 202.786C745.723 197.6 743.553 192.81 741.045 188.78C740.96 188.667 740.566 188.554 740.481 188.441C736.113 181.678 728.56 177.282 720.219 177.338L673.973 177.62L319.197 179.705C307.559 179.733 298.09 190.414 298.09 203.547Z" fill="white"/>
<path d="M720.05 525.35C729.124 525.801 736.536 518.389 736.536 508.779V202.786C736.536 193.204 729.124 185.426 720.05 185.454L319.198 187.258C311.279 187.286 304.853 194.585 304.853 203.518V488.207C304.853 497.14 311.279 504.721 319.198 505.116L720.05 525.35Z" fill="url(#paint23_linear_3_637)"/>
<path d="M319.197 179.649L720.05 177.31C733.436 177.225 744.314 188.61 744.314 202.757V221.104L298.118 220.54V203.518C298.146 190.414 307.53 179.733 319.197 179.649Z" fill="#D8DEE8"/>
<path d="M701.168 199.686C701.168 203.885 704.691 207.295 709.031 207.295C713.399 207.295 716.922 203.857 716.922 199.658C716.922 195.43 713.399 192.049 709.031 192.049C704.691 192.049 701.168 195.459 701.168 199.686Z" fill="white"/>
<path d="M673.663 199.742C673.663 203.941 677.158 207.323 681.469 207.323C685.781 207.323 689.304 203.913 689.304 199.714C689.304 195.515 685.809 192.133 681.469 192.133C677.158 192.133 673.663 195.543 673.663 199.742Z" fill="white"/>
<path d="M646.44 199.799C646.44 203.969 649.906 207.351 654.162 207.323C658.445 207.323 661.911 203.941 661.911 199.742C661.911 195.571 658.445 192.19 654.162 192.218C649.878 192.246 646.44 195.628 646.44 199.799Z" fill="white"/>
<path d="M322.72 489.165L716.048 507.934V267.039L322.72 263.629V489.165Z" fill="#D8DEE8"/>
<g opacity="0.5">
<path opacity="0.5" d="M504.744 241.112L716.048 242.099V255.118L504.744 253.681V241.112Z" fill="white"/>
<path opacity="0.5" d="M345.209 240.38V252.61L322.72 252.469V240.267L345.209 240.38Z" fill="white"/>
</g>
<g opacity="0.5">
<path opacity="0.5" d="M416.62 517.769L720.049 533.494C732.477 534.142 743.524 524.814 744.905 512.133C744.905 511.851 745.694 202.645 745.694 202.645C745.694 197.544 743.524 192.781 741.101 188.779C741.016 188.667 740.594 188.554 740.509 188.441C736.169 181.509 728.532 176.943 720.078 177L674.086 177.281C674.057 177.394 673.973 177.507 673.916 177.591C673.071 180.24 672.085 182.946 671.07 185.679C666.984 196.529 661.545 207.858 654.246 218.99C653.795 219.666 653.344 220.343 652.893 221.019C647.51 228.966 641.818 235.786 635.843 241.76C631.081 246.523 626.149 250.722 621.104 254.498C615.186 258.923 609.099 262.727 602.899 266.081C558.316 290.401 508.379 292.571 475.322 342.424C447.028 385.091 467.29 408.341 439.926 473.919C436.967 481.049 433.755 487.84 430.373 494.322C427.498 499.874 424.483 505.172 421.355 510.301C419.833 512.809 418.227 515.317 416.62 517.769Z" fill="white"/>
</g>
<path d="M561.783 464.929C561.783 473.891 568.8 481.472 577.452 481.838C586.132 482.204 593.205 475.215 593.205 466.197C593.205 457.179 586.132 449.627 577.452 449.288C568.8 448.95 561.783 455.967 561.783 464.929Z" fill="white"/>
<path d="M498.826 462.365C498.826 471.242 505.674 478.71 514.157 479.076C522.667 479.443 529.572 472.51 529.572 463.605C529.572 454.699 522.667 447.203 514.157 446.893C505.674 446.583 498.826 453.516 498.826 462.365Z" fill="white"/>
<path d="M437.249 459.885C437.249 468.649 443.957 476.061 452.242 476.399C460.555 476.766 467.319 469.917 467.319 461.097C467.319 452.276 460.555 444.892 452.242 444.582C443.928 444.272 437.249 451.12 437.249 459.885Z" fill="white"/>
<path d="M509.817 518.135C616.286 523.715 654.415 539.553 671.803 517.036C687.895 496.21 674.565 418.598 655.43 396.448C625.417 361.672 577.734 359.023 513.593 355.895C454.356 353.02 418.368 351.273 390.215 376.016C364.119 398.984 347.548 479.752 363.696 503.058C378.745 524.786 411.182 512.95 509.817 518.135Z" fill="url(#paint24_linear_3_637)"/>
<path d="M548.848 356.515L561.276 359.953C564.319 360.799 565.728 364.349 564.009 366.942C555.527 379.906 533.179 412.286 519.257 415.752C504.913 419.303 478.31 377.144 469.489 362.405C467.967 359.869 469.179 356.6 471.969 355.782L480.874 353.105C488.173 350.907 495.895 350.174 503.588 350.963L537.237 354.373C541.154 354.74 545.043 355.444 548.848 356.515Z" fill="url(#paint25_linear_3_637)"/>
<path d="M539.632 308.325C539.632 308.325 532.841 357.05 542.225 361.926L515.537 390.389L488.709 355.444C488.709 355.444 498.826 347.976 496.149 307.761L539.632 308.325Z" fill="url(#paint26_linear_3_637)"/>
<path d="M555.47 238.435C556.428 239.759 569.11 301.646 525.485 307.507C482.424 313.313 480.564 268.166 481.1 249.031C481.635 229.896 501.277 222.963 512.55 221.639C523.879 220.314 552.032 233.785 555.47 238.435Z" fill="url(#paint27_linear_3_637)"/>
<path d="M558.006 274.479C558.006 274.479 560.205 264.39 567.701 270.759C575.225 277.128 563.276 293.727 553.441 292.938L558.006 274.479Z" fill="url(#paint28_linear_3_637)"/>
<path d="M482.424 266.87C483.664 267.715 487.187 291.19 487.187 291.19C487.187 291.19 481.015 291.839 476.534 283.384C472.11 274.958 469.968 258.275 482.424 266.87Z" fill="url(#paint29_linear_3_637)"/>
<path d="M465.656 222.09C470.137 214.593 481.494 218.144 484.819 210.873C487.609 204.758 481.043 199.037 484.566 193.767C487.525 189.343 494.739 189.427 496.007 189.456C505.786 189.568 508.041 197.346 515.03 197.149C523.597 196.924 523.935 185.2 535.264 180.184C546.311 175.309 562.544 179.141 569.11 188.159C574.239 195.176 569.871 200.362 576.578 209.38C581.2 215.608 585.314 215.862 587.597 221.977C589.767 227.698 588.301 233.165 587.146 237.195C584.412 246.889 579.283 251.145 571.59 261.403C568.152 265.996 563.417 272.788 558.57 281.75C556.541 287.132 553.61 295.474 550.933 306.014C548.481 315.596 548.622 317.54 546.339 320.64C538.477 331.236 520.582 329.912 513.085 329.348C504.518 328.7 493.866 327.911 488.511 320.358C485.637 316.3 486.003 312.665 485.327 302.914C484.848 295.953 483.861 286.23 481.635 274.394C481.579 274.394 480.649 268.983 478.169 262.276C475.069 253.935 471.856 252.582 468.361 243.987C465.628 237.11 462.021 228.205 465.656 222.09ZM501.108 287.301C506.406 288.795 509.985 287.555 517.172 287.217C531.601 286.54 536.194 293.36 543.042 290.458C545.888 289.246 552.511 285.836 553.92 279.185C554.737 274.873 555.301 268.955 554.371 262.107C553.244 253.737 551.919 244.071 545.212 239.788C535.49 233.588 523.118 244.156 514.241 237.251C510.859 234.602 509.506 230.6 508.886 227.557C506.914 228.233 491.357 233.869 485.665 250.525C482.142 260.755 484.171 269.942 485.862 274.93C489.047 279.805 493.95 285.301 501.108 287.301Z" fill="#26264F"/>
<path d="M530.981 297.785C525.401 299.448 517.031 300.519 507.675 296.855C506.716 296.489 505.871 297.531 506.688 298.123C510.042 300.547 514.917 303.14 520.244 302.801C524.64 302.52 528.698 300.885 531.826 299.138C532.7 298.659 531.995 297.503 530.981 297.785Z" fill="url(#paint30_linear_3_637)"/>
<path d="M564.01 464.844C564.01 472.284 570.097 478.569 577.593 478.85C585.117 479.132 591.233 473.299 591.233 465.831C591.233 458.362 585.117 452.078 577.593 451.824C570.097 451.571 564.01 457.404 564.01 464.844Z" fill="white"/>
<path d="M500.996 462.562C500.996 469.945 506.97 476.173 514.326 476.455C521.709 476.737 527.712 470.96 527.712 463.548C527.712 456.137 521.709 449.908 514.326 449.655C506.97 449.401 500.996 455.178 500.996 462.562Z" fill="white"/>
<path d="M439.138 460.279C439.138 467.606 444.999 473.75 452.242 474.032C459.485 474.313 465.403 468.593 465.403 461.237C465.403 453.882 459.513 447.738 452.242 447.485C444.971 447.259 439.138 452.98 439.138 460.279Z" fill="white"/>
<path d="M613.693 212.057C605.21 201.433 600.335 188.977 600.335 175.619C600.335 136.841 641.649 105.391 692.573 105.391C743.496 105.391 784.81 136.841 784.81 175.619C784.81 214.397 743.496 245.847 692.573 245.847C673.466 245.847 655.74 241.422 641.029 233.87C631.306 235.533 616.201 238.323 608.226 239.788C605.887 240.211 603.97 237.928 604.788 235.702L613.693 212.057Z" fill="url(#paint31_linear_3_637)"/>
<g opacity="0.3">
<path opacity="0.3" d="M642.1 190.471C662.785 181.763 685.528 200.137 699.759 187.314C714.104 174.407 698.604 148.903 712.328 130.698C718.866 122.018 729.885 117.932 742.454 116.494C767.958 128.979 784.839 150.791 784.839 175.591C784.839 214.368 743.525 245.819 692.601 245.819C673.494 245.819 655.768 241.394 641.057 233.842C633.392 235.138 622.373 237.167 614.144 238.689C620.175 207.267 631.335 195.008 642.1 190.471Z" fill="url(#paint32_linear_3_637)"/>
</g>
<path d="M631.391 149.946C631.391 151.89 632.969 153.496 634.942 153.496H747.104C749.048 153.496 750.655 151.918 750.655 149.946C750.655 148.001 749.077 146.395 747.104 146.395H634.97C632.997 146.395 631.391 148.001 631.391 149.946Z" fill="white"/>
<path d="M631.391 171.195C631.391 173.139 632.969 174.745 634.942 174.745H747.104C749.048 174.745 750.655 173.167 750.655 171.195C750.655 169.25 749.077 167.644 747.104 167.644H634.97C632.997 167.644 631.391 169.25 631.391 171.195Z" fill="white"/>
<path d="M684.513 192.443C684.513 194.388 686.091 195.994 688.064 195.994H747.104C749.048 195.994 750.655 194.416 750.655 192.443C750.655 190.499 749.077 188.892 747.104 188.892H688.092C686.119 188.892 684.513 190.499 684.513 192.443Z" fill="white"/>
<defs>
<linearGradient id="paint0_linear_3_637" x1="581.125" y1="393.129" x2="202.522" y2="393.129" gradientUnits="userSpaceOnUse">
<stop stop-color="#FFC444"/>
<stop offset="0.9964" stop-color="#F36F56"/>
</linearGradient>
<linearGradient id="paint1_linear_3_637" x1="425.844" y1="498.542" x2="16.4964" y2="526.772" gradientUnits="userSpaceOnUse">
<stop stop-color="#FF9085"/>
<stop offset="1" stop-color="#FB6FBB"/>
</linearGradient>
<linearGradient id="paint2_linear_3_637" x1="86.9445" y1="422.69" x2="271.435" y2="729.218" gradientUnits="userSpaceOnUse">
<stop stop-color="#FFC444"/>
<stop offset="0.9964" stop-color="#F36F56"/>
</linearGradient>
<linearGradient id="paint3_linear_3_637" x1="777.804" y1="510.154" x2="263.73" y2="510.154" gradientUnits="userSpaceOnUse">
<stop stop-color="#444B8C"/>
<stop offset="0.9964" stop-color="#26264F"/>
</linearGradient>
<linearGradient id="paint4_linear_3_637" x1="756.69" y1="506.776" x2="281.115" y2="506.776" gradientUnits="userSpaceOnUse">
<stop stop-color="#AA80F9"/>
<stop offset="0.9964" stop-color="#6165D7"/>
</linearGradient>
<linearGradient id="paint5_linear_3_637" x1="777.804" y1="707.817" x2="3.37277" y2="707.817" gradientUnits="userSpaceOnUse">
<stop stop-color="#444B8C"/>
<stop offset="0.9964" stop-color="#26264F"/>
</linearGradient>
<linearGradient id="paint6_linear_3_637" x1="405.022" y1="187.601" x2="63.1919" y2="187.601" gradientUnits="userSpaceOnUse">
<stop stop-color="white"/>
<stop offset="0.9964" stop-color="#EBEFF2"/>
</linearGradient>
<linearGradient id="paint7_linear_3_637" x1="149.977" y1="61.9492" x2="215.623" y2="190.506" gradientUnits="userSpaceOnUse">
<stop stop-color="#AB316D"/>
<stop offset="1" stop-color="#792D3D"/>
</linearGradient>
<linearGradient id="paint8_linear_3_637" x1="148.41" y1="59.477" x2="214.719" y2="189.333" gradientUnits="userSpaceOnUse">
<stop stop-color="#AB316D"/>
<stop offset="1" stop-color="#792D3D"/>
</linearGradient>
<linearGradient id="paint9_linear_3_637" x1="214.372" y1="474.793" x2="245.843" y2="246.628" gradientUnits="userSpaceOnUse">
<stop offset="0.00359712" stop-color="#E38DDD"/>
<stop offset="1" stop-color="#9571F6"/>
</linearGradient>
<linearGradient id="paint10_linear_3_637" x1="234.439" y1="281.524" x2="239.045" y2="181.565" gradientUnits="userSpaceOnUse">
<stop stop-color="#FFC444"/>
<stop offset="0.9964" stop-color="#F36F56"/>
</linearGradient>
<linearGradient id="paint11_linear_3_637" x1="239.357" y1="193.633" x2="237.593" y2="126.073" gradientUnits="userSpaceOnUse">
<stop stop-color="#FFC444"/>
<stop offset="0.9964" stop-color="#F36F56"/>
</linearGradient>
<linearGradient id="paint12_linear_3_637" x1="267.073" y1="186.535" x2="265.448" y2="124.31" gradientUnits="userSpaceOnUse">
<stop stop-color="#FFC444"/>
<stop offset="0.9964" stop-color="#F36F56"/>
</linearGradient>
<linearGradient id="paint13_linear_3_637" x1="212.41" y1="188.128" x2="210.81" y2="126.88" gradientUnits="userSpaceOnUse">
<stop stop-color="#FFC444"/>
<stop offset="0.9964" stop-color="#F36F56"/>
</linearGradient>
<linearGradient id="paint14_linear_3_637" x1="391.994" y1="523.577" x2="111.384" y2="523.577" gradientUnits="userSpaceOnUse">
<stop stop-color="white"/>
<stop offset="0.9964" stop-color="#EBEFF2"/>
</linearGradient>
<linearGradient id="paint15_linear_3_637" x1="266.623" y1="389.595" x2="241.752" y2="786.073" gradientUnits="userSpaceOnUse">
<stop offset="0.003597" stop-color="#F36F56"/>
<stop offset="1" stop-color="#FFC444"/>
</linearGradient>
<linearGradient id="paint16_linear_3_637" x1="250.555" y1="570.279" x2="251.36" y2="521.144" gradientUnits="userSpaceOnUse">
<stop stop-color="#311944"/>
<stop offset="1" stop-color="#893976"/>
</linearGradient>
<linearGradient id="paint17_linear_3_637" x1="250.154" y1="574.852" x2="250.413" y2="533.429" gradientUnits="userSpaceOnUse">
<stop stop-color="#AB316D"/>
<stop offset="1" stop-color="#792D3D"/>
</linearGradient>
<linearGradient id="paint18_linear_3_637" x1="253.631" y1="515.486" x2="246.765" y2="432.828" gradientUnits="userSpaceOnUse">
<stop stop-color="#AB316D"/>
<stop offset="1" stop-color="#792D3D"/>
</linearGradient>
<linearGradient id="paint19_linear_3_637" x1="276.823" y1="514.187" x2="270.047" y2="432.625" gradientUnits="userSpaceOnUse">
<stop stop-color="#AB316D"/>
<stop offset="1" stop-color="#792D3D"/>
</linearGradient>
<linearGradient id="paint20_linear_3_637" x1="227.132" y1="516.515" x2="220.271" y2="433.927" gradientUnits="userSpaceOnUse">
<stop stop-color="#AB316D"/>
<stop offset="1" stop-color="#792D3D"/>
</linearGradient>
<linearGradient id="paint21_linear_3_637" x1="255.382" y1="475.957" x2="237.064" y2="419.144" gradientUnits="userSpaceOnUse">
<stop stop-color="#311944"/>
<stop offset="1" stop-color="#6B3976"/>
</linearGradient>
<linearGradient id="paint22_linear_3_637" x1="255.329" y1="475.795" x2="236.876" y2="418.566" gradientUnits="userSpaceOnUse">
<stop stop-color="#311944"/>
<stop offset="1" stop-color="#6B3976"/>
</linearGradient>
<linearGradient id="paint23_linear_3_637" x1="736.552" y1="355.407" x2="304.84" y2="355.407" gradientUnits="userSpaceOnUse">
<stop stop-color="white"/>
<stop offset="0.9964" stop-color="#EBEFF2"/>
</linearGradient>
<linearGradient id="paint24_linear_3_637" x1="389.506" y1="212.246" x2="572.922" y2="573.285" gradientUnits="userSpaceOnUse">
<stop stop-color="#FF9085"/>
<stop offset="1" stop-color="#FB6FBB"/>
</linearGradient>
<linearGradient id="paint25_linear_3_637" x1="518.939" y1="479.135" x2="515.896" y2="313.028" gradientUnits="userSpaceOnUse">
<stop stop-color="#311944"/>
<stop offset="0.5554" stop-color="#6F2B60"/>
<stop offset="1" stop-color="#A03976"/>
</linearGradient>
<linearGradient id="paint26_linear_3_637" x1="513.989" y1="368.374" x2="502.485" y2="443.15" gradientUnits="userSpaceOnUse">
<stop stop-color="#FFC444"/>
<stop offset="0.9964" stop-color="#F36F56"/>
</linearGradient>
<linearGradient id="paint27_linear_3_637" x1="519.439" y1="253.569" x2="522.327" y2="444.192" gradientUnits="userSpaceOnUse">
<stop stop-color="#FFC444"/>
<stop offset="0.9964" stop-color="#F36F56"/>
</linearGradient>
<linearGradient id="paint28_linear_3_637" x1="565.861" y1="243.305" x2="547.094" y2="433.43" gradientUnits="userSpaceOnUse">
<stop stop-color="#FFC444"/>
<stop offset="0.9964" stop-color="#F36F56"/>
</linearGradient>
<linearGradient id="paint29_linear_3_637" x1="479.725" y1="253.895" x2="482.608" y2="444.131" gradientUnits="userSpaceOnUse">
<stop stop-color="#FFC444"/>
<stop offset="0.9964" stop-color="#F36F56"/>
</linearGradient>
<linearGradient id="paint30_linear_3_637" x1="509.887" y1="216.93" x2="518.134" y2="288.129" gradientUnits="userSpaceOnUse">
<stop stop-color="#FFC444"/>
<stop offset="0.9964" stop-color="#F36F56"/>
</linearGradient>
<linearGradient id="paint31_linear_3_637" x1="784.832" y1="175.614" x2="600.333" y2="175.614" gradientUnits="userSpaceOnUse">
<stop stop-color="#AA80F9"/>
<stop offset="0.9964" stop-color="#6165D7"/>
</linearGradient>
<linearGradient id="paint32_linear_3_637" x1="760.48" y1="127.081" x2="600.374" y2="337.937" gradientUnits="userSpaceOnUse">
<stop stop-color="#AA80F9"/>
<stop offset="0.9964" stop-color="#6165D7"/>
</linearGradient>
</defs>
</svg>
